<svg id="Capa_1" enable-background="new 0 0 512 512" height="512" viewBox="0 0 512 512" width="512" xmlns="http://www.w3.org/2000/svg"><g><g><path clip-rule="evenodd" d="m52.142 502h203.858v-175.036-175.008-141.956h-203.858c-14.825 0-26.985 12.16-26.985 26.985v438.001c0 14.854 12.16 27.014 26.985 27.014z" fill="#bedaff" fill-rule="evenodd"/></g><g><path clip-rule="evenodd" d="m101.689 429.406 71.033 19.048c2.693.709 5.612-1.332 6.463-4.564l29.139-108.707-80.84-21.685-4.422 16.497-18.509 69.107-6.208 23.13c-.879 3.234.623 6.465 3.344 7.174z" fill="#ffda8f" fill-rule="evenodd"/></g><g><path clip-rule="evenodd" d="m82.868 143.906c2.948 28.374 32.994 42.944 57.399 36.396 24.405-6.52 43.141-34.157 31.491-60.235l-21.06-47.111-73.13 19.587z" fill="#ffda8f" fill-rule="evenodd"/></g><g><path clip-rule="evenodd" d="m256 151.956h230.843v-114.971c0-14.825-12.16-26.985-27.013-26.985h-203.83zm53.119-43.737c-5.159 0-9.382-4.224-9.382-9.382v-35.717c0-5.159 4.223-9.382 9.382-9.382h124.577c5.159 0 9.382 4.224 9.382 9.382v35.716c0 5.159-4.223 9.382-9.382 9.382h-124.577z" fill="#fff3da" fill-rule="evenodd"/></g><g><path clip-rule="evenodd" d="m309.119 108.219h124.577c5.159 0 9.382-4.224 9.382-9.382v-35.717c0-5.159-4.223-9.382-9.382-9.382h-124.577c-5.159 0-9.382 4.224-9.382 9.382v35.716c0 5.159 4.223 9.383 9.382 9.383z" fill="#ff7d95" fill-rule="evenodd"/></g><g><path clip-rule="evenodd" d="m256 151.956h230.843v175.008h-230.843z" fill="#ff7d95" fill-rule="evenodd"/></g><g><path clip-rule="evenodd" d="m256 502h203.83c14.853 0 27.013-12.16 27.013-27.014v-148.022h-230.843z" fill="#fff3da" fill-rule="evenodd"/></g><g><path d="m371.421 360.73h-71.685c-5.523 0-10 4.477-10 10s4.477 10 10 10h71.685c5.523 0 10-4.477 10-10s-4.477-10-10-10z"/><path d="m443.078 360.73h-26.333c-5.523 0-10 4.477-10 10s4.477 10 10 10h26.333c5.523 0 10-4.477 10-10s-4.477-10-10-10z"/><path d="m443.078 404.496h-26.333c-5.523 0-10 4.477-10 10s4.477 10 10 10h26.333c5.523 0 10-4.477 10-10s-4.477-10-10-10z"/><path d="m371.421 404.496h-71.685c-5.523 0-10 4.477-10 10s4.477 10 10 10h71.685c5.523 0 10-4.477 10-10s-4.477-10-10-10z"/><path d="m371.421 448.234h-71.685c-5.523 0-10 4.477-10 10s4.477 10 10 10h71.685c5.523 0 10-4.477 10-10s-4.477-10-10-10z"/><path d="m443.078 448.234h-26.333c-5.523 0-10 4.477-10 10s4.477 10 10 10h26.333c5.523 0 10-4.477 10-10s-4.477-10-10-10z"/><path d="m180.154 158.777c6.607-13.862 6.868-29.058.733-42.791l-21.061-47.111c-2.005-4.485-6.97-6.851-11.717-5.579l-73.129 19.588c-4.745 1.271-7.864 5.8-7.36 10.686l5.301 51.37c1.552 14.936 9.369 27.951 22.011 36.647 9.79 6.734 21.566 10.278 33.301 10.278 1.577 0 3.153-.071 4.723-.2l9.576 35.763-23.45 6.284c-5.335 1.43-8.5 6.913-7.071 12.248 1.197 4.468 5.237 7.414 9.653 7.414.856 0 1.728-.111 2.595-.343l66.214-17.745c5.335-1.43 8.5-6.913 7.071-12.248-1.43-5.335-6.913-8.502-12.248-7.071l-23.446 6.283-9.577-35.767c12.019-5.677 22.086-15.548 27.881-27.706zm-18.054-8.606c-4.699 9.859-14.054 17.703-24.415 20.47-.001 0-.003.001-.004.001h-.001s-.001 0-.002.001c-.001 0-.002.001-.003.001-10.366 2.782-22.402.661-31.407-5.534-5.475-3.766-12.253-10.681-13.453-22.23l-4.425-42.883 56.659-15.175 17.58 39.324c4.748 10.631 2.333 20.021-.529 26.025z"/><path d="m61.431 391.124c2.991 5.171 7.801 8.869 13.549 10.412l17.315 4.638-3.601 13.437c-1.168 4.298-.604 8.895 1.55 12.61 1.997 3.446 5.166 5.883 8.854 6.844l71.079 19.061c1.191.313 2.408.467 3.623.467 3.013 0 6.018-.948 8.6-2.766 3.153-2.219 5.446-5.555 6.443-9.347l29.139-108.707c1.43-5.333-1.735-10.817-7.068-12.248l-80.84-21.685c-2.564-.687-5.293-.328-7.589.998-2.297 1.326-3.974 3.511-4.661 6.073l-1.832 6.837-17.304-4.64c-5.755-1.539-11.776-.746-16.951 2.236-5.185 2.988-8.889 7.809-10.427 13.566l-12.131 45.265c-1.543 5.75-.743 11.769 2.252 16.949zm52.78 10.568 16.75-62.54 3.591-13.402 61.522 16.503-25.535 95.264-61.518-16.497 5.132-19.151c.019-.06.042-.117.058-.177zm-35.715-22.336 12.134-45.275c.203-.76.706-1.185 1.093-1.408.283-.164.691-.327 1.187-.327.19 0 .393.024.606.081l17.299 4.639-13.342 49.789-17.313-4.638c-1.209-.323-1.987-1.659-1.664-2.861z"/><path d="m459.83 0h-407.688c-20.393 0-36.985 16.591-36.985 36.985v174.101c0 5.523 4.477 10 10 10s10-4.477 10-10v-174.101c0-9.365 7.619-16.985 16.985-16.985h193.858v472h-193.858c-9.365 0-16.984-7.632-16.984-17.014v-174.1c0-5.523-4.477-10-10-10s-10 4.477-10 10v174.101c0 20.409 16.591 37.014 36.984 37.014h407.688c20.409 0 37.013-16.604 37.013-37.014v-438.002c0-20.394-16.604-36.985-37.013-36.985zm-193.83 20h193.83c9.381 0 17.013 7.62 17.013 16.985v104.971h-210.843zm210.843 141.957v155.007h-210.843v-155.007zm-17.013 330.043h-193.83v-155.036h210.843v138.022c0 9.382-7.632 17.014-17.013 17.014z"/><path d="m433.696 43.738h-124.577c-10.688 0-19.382 8.695-19.382 19.382v35.716c0 10.688 8.695 19.383 19.382 19.383h124.577c10.688 0 19.382-8.695 19.382-19.383v-35.716c0-10.687-8.695-19.382-19.382-19.382zm-.618 54.481h-123.342v-34.481h123.342z"/><path d="m416.745 205.722h26.333c5.523 0 10-4.477 10-10s-4.477-10-10-10h-26.333c-5.523 0-10 4.477-10 10s4.477 10 10 10z"/><path d="m299.736 205.722h71.685c5.523 0 10-4.477 10-10s-4.477-10-10-10h-71.685c-5.523 0-10 4.477-10 10s4.477 10 10 10z"/><path d="m416.745 249.46h26.333c5.523 0 10-4.477 10-10s-4.477-10-10-10h-26.333c-5.523 0-10 4.477-10 10s4.477 10 10 10z"/><path d="m299.736 249.46h71.685c5.523 0 10-4.477 10-10s-4.477-10-10-10h-71.685c-5.523 0-10 4.477-10 10s4.477 10 10 10z"/><path d="m299.736 293.226h71.685c5.523 0 10-4.477 10-10s-4.477-10-10-10h-71.685c-5.523 0-10 4.477-10 10s4.477 10 10 10z"/><path d="m416.745 293.226h26.333c5.523 0 10-4.477 10-10s-4.477-10-10-10h-26.333c-5.523 0-10 4.477-10 10s4.477 10 10 10z"/><path d="m25.157 266.014c5.523 0 10-4.505 10-10.028s-4.477-10-10-10-10 4.477-10 10v.057c0 5.522 4.477 9.971 10 9.971z"/></g></g></svg>