<svg id="Layer_1" enable-background="new 0 0 256 256" height="512" viewBox="0 0 256 256" width="512" xmlns="http://www.w3.org/2000/svg"><g><path d="m104.06 159.89v10.56c0 15.66-11.14 23.94-22.3 23.94-12.32 0-22.3-9.98-22.3-22.29v-12.21z" fill="#f2e1d6"/><path d="m196.54 159.89v12.21c0 12.31-9.98 22.29-22.3 22.29-11.56 0-22.3-8.69-22.3-23.94v-10.56z" fill="#f2e1d6"/><g><g fill="#fc5d3d"><path d="m59.46 159.89v12.21c0 13.76-10.34 22.29-21.41 22.29-3.66 0-7.11-.91-10.12-2.52-6.73-3.62-11.3-10.73-11.3-18.88v-13.1z"/><path d="m104.06 159.89h47.88v10.56c0 13.23-10.71 23.94-23.94 23.94s-23.94-10.71-23.94-23.94z"/><path d="m239.37 159.89v13.1c0 8.15-4.57 15.26-11.3 18.88-3.01 1.61-6.46 2.52-10.12 2.52-11.18 0-21.41-8.65-21.41-22.29v-12.21z"/></g><path d="m228.07 191.87v59.88h-200.14v-59.88c3.01 1.61 6.46 2.52 10.12 2.52 11.07 0 21.41-8.53 21.41-22.29 0 12.31 9.98 22.29 22.3 22.29 11.16 0 22.3-8.28 22.3-23.94 0 13.23 10.71 23.94 23.94 23.94s23.94-10.71 23.94-23.94c0 15.25 10.74 23.94 22.3 23.94 12.32 0 22.3-9.98 22.3-22.29 0 13.64 10.23 22.29 21.41 22.29 3.66 0 7.11-.91 10.12-2.52z" fill="#f0c020"/><path d="m38.048 188.483c-.792 0-1.591-.061-2.372-.182-1.365-.21-2.3-1.487-2.09-2.852.21-1.364 1.489-2.302 2.852-2.09.53.082 1.072.123 1.61.123 1.381 0 2.5 1.119 2.5 2.5s-1.119 2.501-2.5 2.501zm-12.355-6.146c-2.059-2.714-3.147-5.948-3.147-9.354v-4.687c0-1.381 1.119-2.5 2.5-2.5s2.5 1.119 2.5 2.5v4.687c0 2.305.737 4.495 2.13 6.332.834 1.1.619 2.668-.48 3.503-1.101.834-2.669.618-3.503-.481z" fill="#ffcbc2"/><path d="m81.758 188.483c-.784 0-1.574-.057-2.349-.168-1.367-.197-2.315-1.464-2.119-2.831s1.457-2.315 2.831-2.119c.54.078 1.09.117 1.637.117 1.381 0 2.5 1.119 2.5 2.5s-1.119 2.501-2.5 2.501zm-12.457-5.747c-2.536-2.965-3.933-6.745-3.933-10.642v-3.798c0-1.381 1.119-2.5 2.5-2.5s2.5 1.119 2.5 2.5v3.798c0 2.707.971 5.332 2.733 7.392.897 1.049.774 2.627-.275 3.525-1.049.897-2.627.775-3.525-.275z" fill="#fff"/><path d="m217.952 188.483c-.792 0-1.591-.061-2.372-.182-1.365-.21-2.3-1.487-2.09-2.852.21-1.364 1.487-2.302 2.852-2.09.53.082 1.072.123 1.61.123 1.381 0 2.5 1.119 2.5 2.5s-1.119 2.501-2.5 2.501zm-12.354-6.147c-2.058-2.713-3.146-5.947-3.146-9.353v-4.687c0-1.381 1.119-2.5 2.5-2.5s2.5 1.119 2.5 2.5v4.687c0 2.305.737 4.495 2.13 6.332.834 1.1.619 2.668-.481 3.502s-2.668.619-3.503-.481z" fill="#ffcbc2"/><path d="m174.242 188.483c-.784 0-1.574-.057-2.349-.168-1.367-.197-2.315-1.464-2.119-2.831s1.457-2.315 2.831-2.119c.54.078 1.09.117 1.637.117 1.381 0 2.5 1.119 2.5 2.5s-1.119 2.501-2.5 2.501zm-12.456-5.747c-2.536-2.965-3.933-6.744-3.933-10.642v-3.798c0-1.381 1.119-2.5 2.5-2.5s2.5 1.119 2.5 2.5v3.798c0 2.707.971 5.332 2.733 7.392.897 1.049.774 2.627-.275 3.525-1.05.897-2.627.775-3.525-.275z" fill="#fff"/><path d="m128 188.483c-.771 0-1.55-.05-2.313-.148-1.369-.176-2.337-1.429-2.161-2.798s1.422-2.342 2.798-2.161c.552.071 1.116.107 1.675.107 1.381 0 2.5 1.119 2.5 2.5s-1.118 2.5-2.499 2.5zm-12.58-5.123c-3.516-3.427-5.453-8.012-5.453-12.909v-2.155c0-1.381 1.119-2.5 2.5-2.5s2.5 1.119 2.5 2.5v2.155c0 3.538 1.4 6.851 3.943 9.329.989.963 1.009 2.546.045 3.535-.964.99-2.546 1.01-3.535.045z" fill="#ffcbc2"/><path d="m203.167 114.251h-150.334c-3.432 0-6.64 1.708-8.556 4.556l-27.641 41.083h222.727l-27.641-41.083c-1.916-2.849-5.123-4.556-8.555-4.556z" fill="#fc5d3d"/><path d="m196.542 159.889h-44.599l-6.6-45.635h32.301z" fill="#f2e1d6"/><path d="m63.696 151.877h-28.246c-1.967 0-3.165-2.174-2.113-3.836l14.91-23.569c.737-1.167 2.282-1.515 3.449-.776 1.167.738 1.515 2.283.776 3.449l-12.482 19.732h23.706c1.381 0 2.5 1.119 2.5 2.5s-1.119 2.5-2.5 2.5z" fill="#ffcbc2"/><path d="m217.079 151.875h-26.231c-1.381 0-2.5-1.119-2.5-2.5s1.119-2.5 2.5-2.5h26.231c1.381 0 2.5 1.119 2.5 2.5s-1.119 2.5-2.5 2.5z" fill="#ffcbc2"/><path d="m149.955 151.877h-43.909c-1.381 0-2.5-1.119-2.5-2.5s1.119-2.5 2.5-2.5h43.909c1.381 0 2.5 1.119 2.5 2.5s-1.12 2.5-2.5 2.5z" fill="#ffcbc2"/><path d="m78.356 114.254h32.301l-6.6 45.635h-44.599z" fill="#f2e1d6"/><path d="m105.535 151.877h-40.385c-1.381 0-2.5-1.119-2.5-2.5s1.119-2.5 2.5-2.5h40.385c1.381 0 2.5 1.119 2.5 2.5s-1.119 2.5-2.5 2.5z" fill="#fff"/><path d="m190.657 151.877h-40.703c-1.381 0-2.5-1.119-2.5-2.5s1.119-2.5 2.5-2.5h40.703c1.381 0 2.5 1.119 2.5 2.5s-1.119 2.5-2.5 2.5z" fill="#fff"/><path d="m89.41 214.428h77.181v37.322h-77.181z" fill="#afafaf"/><path d="m89.41 214.428h77.181v37.322h-77.181z" fill="#72c1e8"/><ellipse cx="57.406" cy="227.506" fill="#72c1e8" rx="13.077" ry="13.077" transform="matrix(.383 -.924 .924 .383 -174.75 193.48)"/><ellipse cx="198.594" cy="227.506" fill="#72c1e8" rx="13.077" ry="13.077" transform="matrix(.987 -.16 .16 .987 -33.878 34.749)"/><path d="m105.635 52.698c-3.692 4.567-6.368 9.997-7.637 15.946-4.205-1.856-6.881-2.105-14.246-3.362-2.778-8.69-1.713-18.509 3.742-26.691 11.134 7.423 14.254 9.006 18.141 14.107z" fill="#13bf6d"/><path d="m178.338 76.688c-.008 8.053-2.519 15.537-6.825 21.68h-54.918c.292-6.901-1.751-13.498-5.493-18.902-3.222-4.681-7.726-8.474-13.105-10.821 1.269-5.95 3.945-11.379 7.637-15.946 6.977-8.614 17.634-14.107 29.571-14.107h4.249c20.935-.001 38.905 16.562 38.884 38.096z" fill="#b35034"/><path d="m164.383 76.625c.009 9.563-5.575 17.844-13.663 21.742h-34.125c.292-6.901-1.751-13.498-5.493-18.902v-2.816c0-13.312 10.791-24.103 24.103-24.103h4.507c13.087-.001 24.658 10.197 24.671 24.079z" fill="#fc5d3d"/><path d="m125.054 76.649c0-5.608 4.546-10.154 10.154-10.154h4.747c5.429 0 10.506 4.094 10.471 10.213-.032 5.572-4.574 10.094-10.154 10.094h-5.064c-5.608 0-10.154-4.546-10.154-10.153z" fill="#f0c020"/><circle cx="140.102" cy="29.148" fill="#fc5d3d" r="9.443"/><path d="m111.102 79.465c-3.222-4.681-7.726-8.474-13.105-10.821-4.205-1.856-6.881-2.105-14.246-3.362l-5.645-.964c-2.499 14.678 5.721 28.696 18.978 34.049h19.511c.292-6.901-1.75-13.498-5.493-18.902z" fill="#13bf6d"/><path d="m185.772 102.005c-3.901 8.053-2.544 5.26-5.946 12.248h-103.652c-3.403-6.991-2.045-4.195-5.946-12.248-.822-1.686.411-3.632 2.281-3.632h110.983c1.87 0 3.102 1.946 2.28 3.632z" fill="#72c1e8"/><path d="m229.97 145.92c1.185-.797 1.413-2.362.68-3.47-.75-1.1-2.36-1.42-3.47-.68-1.15.77-1.45 2.33-.68 3.48.733 1.099 2.267 1.472 3.47.67z"/><path d="m166.59 254.25c1.381 0 2.5-1.119 2.5-2.5v-37.322c0-1.381-1.119-2.5-2.5-2.5h-77.18c-1.381 0-2.5 1.119-2.5 2.5v37.322c0 1.381 1.119 2.5 2.5 2.5s2.5-1.119 2.5-2.5v-34.822h72.181v34.822c-.001 1.381 1.118 2.5 2.499 2.5z"/><path d="m57.406 211.928c-8.589 0-15.577 6.988-15.577 15.578s6.988 15.578 15.577 15.578 15.578-6.988 15.578-15.578-6.988-15.578-15.578-15.578zm0 26.155c-5.832 0-10.577-4.745-10.577-10.578s4.745-10.578 10.577-10.578c5.833 0 10.578 4.745 10.578 10.578s-4.745 10.578-10.578 10.578z"/><path d="m214.171 227.506c0-8.589-6.988-15.578-15.577-15.578s-15.578 6.988-15.578 15.578 6.988 15.578 15.578 15.578 15.577-6.989 15.577-15.578zm-26.155 0c0-5.833 4.745-10.578 10.578-10.578 5.832 0 10.577 4.745 10.577 10.578s-4.745 10.578-10.577 10.578c-5.833-.001-10.578-4.746-10.578-10.578z"/><circle cx="27.93" cy="219.75" r="2.5"/><path d="m27.93 227.25c-1.38 0-2.5 1.12-2.5 2.5v22c0 1.38 1.12 2.5 2.5 2.5s2.5-1.12 2.5-2.5v-22c0-1.38-1.12-2.5-2.5-2.5z"/><path d="m14.131 172.987c0 8.308 4.292 15.955 11.299 20.315v16.448c0 1.38 1.12 2.5 2.5 2.5s2.5-1.12 2.5-2.5v-14.105c2.448.818 5.026 1.25 7.619 1.25 9.503 0 17.727-5.574 21.579-13.623 4.095 8.074 12.476 13.623 22.134 13.623 10.044 0 18.706-6.007 22.599-14.614 4.35 8.656 13.31 14.614 23.64 14.614s19.29-5.957 23.64-14.614c3.893 8.607 12.555 14.614 22.599 14.614 9.658 0 18.039-5.55 22.134-13.623 3.852 8.049 12.076 13.623 21.579 13.623 2.592 0 5.168-.432 7.616-1.249v56.104c0 1.381 1.119 2.5 2.5 2.5s2.5-1.119 2.5-2.5v-58.446c7.007-4.356 11.302-12.006 11.302-20.317v-13.098c0-.446-.169-1.018-.433-1.406l-5.206-7.734c-.74-1.1-2.36-1.42-3.47-.68-1.113.736-1.473 2.29-.68 3.47l2.59 3.849h-36.458l-16.829-40.639h21.787c2.6 0 5.03 1.29 6.48 3.45l11.26 16.75c.75 1.1 2.36 1.42 3.47.68 1.178-.799 1.438-2.372.68-3.47l-11.26-16.75c-2.39-3.54-6.36-5.66-10.63-5.66h-19.349l4.201-8.655c.761-1.567.665-3.382-.257-4.857-.926-1.481-2.524-2.365-4.274-2.365h-7.501c3.182-5.867 4.849-12.433 4.849-19.223 0-4.426-.711-8.738-2.11-12.86-.43-1.27-1.88-2-3.17-1.56-1.3.44-2 1.87-1.56 3.17 1.222 3.604 1.84 7.377 1.84 11.25 0 6.86-1.96 13.51-5.66 19.22h-11.546c5.463-5.22 8.246-12.141 8.246-19.22 0-15.242-12.63-26.6-27.17-26.6h-4.5c-13.515 0-24.578 10.008-26.354 22.919-2.376-2.301-5.23-4.315-7.946-5.709 1.218-4.475 3.462-9.016 6.67-12.99 6.79-8.38 16.86-13.18 27.63-13.18h4.25c8.9 0 17.49 3.21 24.19 9.03 1.01.87 2.66.75 3.53-.25.892-1.034.816-2.592-.25-3.53-5.199-4.51-11.391-7.635-18.012-9.167 1.933-2.123 3.122-4.934 3.122-8.023 0-5.002-3.086-9.284-7.454-11.06l2.353-13.409c.248-1.362-.674-2.664-2.03-2.89-1.35-.24-2.66.69-2.89 2.03l-2.356 13.412c-6.377.232-11.504 5.475-11.504 11.918 0 2.705.916 5.195 2.44 7.2-9.536 1.077-18.322 5.483-24.914 12.503-3.512-3.846-7.007-5.809-16.806-12.343-1.224-.816-2.846-.37-3.522.774-4.739 7.159-6.686 15.921-4.951 24.889l-1.877-.323c-1.416-.221-2.666.726-2.89 2.05-2.066 12.143 2.641 24.345 12.258 31.973h-15.389c-3.725 0-6.154 3.889-4.531 7.222l4.201 8.655h-19.349c-4.27 0-8.24 2.12-10.63 5.66l-27.635 41.074c-.263.387-.433.965-.433 1.406v13.097zm125.969-150.777c3.82 0 6.94 3.12 6.95 6.94-.01 3.82-3.13 6.93-6.95 6.94-3.82-.01-6.93-3.12-6.94-6.94.01-3.82 3.12-6.94 6.94-6.94zm-33.155 135.179 5.877-40.635h30.358l5.876 40.635zm-26.918-40.635h27.742l-5.876 40.635h-38.693zm-41.978 75.141c-10.497 0-18.918-8.495-18.918-18.908v-10.597h37.826v9.711c0 12.366-9.244 19.794-18.908 19.794zm43.712 0c-10.92 0-19.805-8.88-19.805-19.794v-9.711h39.599v8.061c.001 14.187-9.986 21.444-19.794 21.444zm46.239 0c-11.824 0-21.444-9.62-21.444-21.444v-8.061h42.889v8.061c-.001 11.824-9.621 21.444-21.445 21.444zm46.239 0c-9.638 0-19.794-7.058-19.794-21.444v-8.061h39.599v9.711c-.001 10.914-8.885 19.794-19.805 19.794zm43.712 0c-9.652 0-18.908-7.412-18.908-19.794v-9.711h37.826v10.598c0 10.41-8.416 18.907-18.918 18.907zm-63.844-34.506-5.876-40.635h27.742l16.827 40.635zm-57.117-86.459c9.412 4.126 15.911 13.028 16.961 23.218-10.962-6.288-21.623-16.646-29.756-26.252 6.82 1.145 9.101 1.411 12.795 3.034zm16.61 5.72c.02-11.89 9.72-21.58 21.61-21.61h4.5c11.859 0 22.17 9.138 22.17 21.61.01 8.12-4.5 15.48-11.75 19.22h-31.03c-.209-5.788-2.045-11.926-5.5-17.17zm-11.15-23.91c-1.993 2.736-3.573 5.642-4.734 8.457-.01.025-.023.049-.033.075-2.154-5.467-4.26-11.36-5.953-16.88 5.782 3.81 8.316 5.555 10.72 8.348zm-15.669-7.445c1.354 4.458 3.558 11.102 6.817 19.231-2.312-.558-5.233-1.008-7.888-1.447-1.57-6.03-1.144-12.207 1.071-17.784zm-6.573 25.628c5.652 6.734 15.471 17.295 27.044 24.947h-9.672c-10.175-4.305-16.869-14.003-17.372-24.947zm-7.699 29.95 111.023.02s-.001.006-.007.018c-.001.002-.001.003-.002.005l-5.257 10.834h-100.531zm-26.159 19.327c1.45-2.16 3.88-3.45 6.48-3.45h21.788l-16.829 40.639h-36.459z"/><path d="m135.21 89.3h5.06c6.98 0 12.65-5.68 12.65-12.65 0-7.537-6.223-12.65-12.96-12.65h-4.75c-6.98 0-12.65 5.67-12.66 12.65.01 6.97 5.68 12.65 12.66 12.65zm0-20.3h4.75c3.941 0 7.96 2.911 7.96 7.65 0 4.21-3.44 7.65-7.65 7.65h-5.06c-4.21 0-7.65-3.44-7.66-7.65.01-4.21 3.45-7.65 7.66-7.65z"/><path d="m173.32 57.75c1.14-.78 1.44-2.33.67-3.47-.75-1.11-2.37-1.42-3.48-.67-1.166.806-1.423 2.365-.66 3.47.766 1.148 2.34 1.441 3.47.67z"/></g></g></svg>