<svg height="511pt" viewBox="0 0 511.984 511" width="511pt" xmlns="http://www.w3.org/2000/svg"><path d="m344.042969 19.757812h-282.753907c-24.234374 0-43.882812 19.644532-43.882812 43.878907v73.132812h370.476562v-73.152343c.019532-24.214844-19.625-43.859376-43.839843-43.859376zm0 0" fill="#42a5f5"/><path d="m400.640625 443.796875-54.1875 53.976563c-6.1875 6.183593-14.507813 9.386718-22.613281 9.386718-8.320313 0-16.425782-3.203125-22.613282-9.386718l-75.519531-75.308594c-5.972656-6.1875-9.386719-14.292969-9.386719-22.828125 0-8.53125 3.414063-16.425781 9.386719-22.613281l54.1875-53.972657zm0 0" fill="#90caf9"/><path d="m497.28125 346.945312-96.640625 96.851563-120.746094-120.746094 96.640625-96.851562c12.15625-11.945313 33.277344-11.945313 45.4375 0l75.308594 75.519531c12.585938 12.375 12.585938 32.640625 0 45.226562zm0 0" fill="#42a5f5"/><path d="m323.820312 512.46875c-9.558593 0-19.117187-3.625-26.414062-10.921875l-75.410156-75.433594c-7.0625-7.039062-10.945313-16.425781-10.945313-26.390625 0-9.960937 3.882813-19.347656 10.945313-26.386718l150.847656-150.847657c14.121094-14.101562 38.699219-14.101562 52.800781 0l75.410157 75.410157c14.570312 14.550781 14.570312 38.253906 0 52.800781l-150.847657 150.847656c-7.273437 7.296875-16.832031 10.921875-26.386719 10.921875zm-3.777343-33.535156c2.6875 2.667968 4.800781 2.710937 7.550781 0l150.847656-150.847656c1.34375-1.363282 1.558594-2.941407 1.558594-3.773438s-.214844-2.414062-1.558594-3.777344l-75.433594-75.414062c-2.730468-2.730469-4.820312-2.710938-7.550781 0l-150.847656 150.847656c-1.34375 1.367188-1.558594 2.945312-1.558594 3.777344 0 .832031.191407 2.410156 1.558594 3.753906zm0 0"/><path d="m392.980469 452.140625c-4.09375 0-8.191407-1.558594-11.304688-4.695313l-105.601562-105.597656c-6.25-6.25-6.25-16.386718 0-22.636718s16.382812-6.25 22.636719 0l105.597656 105.601562c6.25 6.25 6.25 16.382812 0 22.632812-3.136719 3.136719-7.230469 4.695313-11.328125 4.695313zm0 0"/><path d="m145.921875 448.492188h-97.921875c-26.476562 0-48-21.527344-48-48v-352c0-26.476563 21.523438-48 48-48h309.332031c26.476563 0 48 21.523437 48 48v98.773437c0 8.832031-7.167969 16-16 16s-16-7.167969-16-16v-98.773437c0-8.832032-7.167969-16-16-16h-309.332031c-8.832031 0-16 7.167968-16 16v352c0 8.832031 7.167969 16 16 16h97.921875c8.832031 0 16 7.167968 16 16 0 8.832031-7.167969 16-16 16zm0 0"/><path d="m389.332031 139.160156h-373.332031c-8.832031 0-16-7.167968-16-16 0-8.832031 7.167969-16 16-16h373.332031c8.832031 0 16 7.167969 16 16 0 8.832032-7.167969 16-16 16zm0 0"/><path d="m310.828125 245.824219h-294.828125c-8.832031 0-16-7.167969-16-16s7.167969-16 16-16h294.828125c8.832031 0 16 7.167969 16 16s-7.167969 16-16 16zm0 0"/><path d="m202.667969 352.492188h-186.667969c-8.832031 0-16-7.167969-16-16 0-8.832032 7.167969-16 16-16h186.667969c8.832031 0 16 7.167968 16 16 0 8.832031-7.167969 16-16 16zm0 0"/><path d="m202.667969 352.492188c-8.832031 0-16-7.167969-16-16v-213.332032c0-8.832031 7.167969-16 16-16s16 7.167969 16 16v213.332032c0 8.832031-7.167969 16-16 16zm0 0"/></svg>