<?xml version="1.0" encoding="iso-8859-1"?>
<!-- Generator: Adobe Illustrator 19.0.0, SVG Export Plug-In . SVG Version: 6.00 Build 0)  -->
<svg version="1.1" id="Capa_1" xmlns="http://www.w3.org/2000/svg" xmlns:xlink="http://www.w3.org/1999/xlink" x="0px" y="0px"
	 viewBox="0 0 512 512" style="enable-background:new 0 0 512 512;" xml:space="preserve">
<path style="fill:#D4E1F4;" d="M371.315,260.613c54.775,10.378,95.712,58.234,95.712,115.892
	c0,65.153-53.045,118.198-118.198,118.198c-43.243,0-80.721-23.063-101.477-57.081c-10.955-17.874-16.721-38.631-16.721-61.117
	c0-65.153,53.045-118.198,118.198-118.198C356.324,258.306,363.82,258.883,371.315,260.613z"/>
<g>
	<polygon style="fill:#4DCFE0;" points="371.315,119.928 261.766,119.928 261.766,17.297 	"/>
	<path style="fill:#4DCFE0;" d="M371.315,119.928v140.685c-7.495-1.153-14.991-2.306-22.487-2.306
		c-65.153,0-118.198,53.045-118.198,118.198c0,22.486,6.342,43.243,16.721,61.117l-2.306,1.153H56.504
		c-6.342,0-11.532-5.189-11.532-11.532V28.829c0-6.342,5.189-11.532,11.532-11.532h205.261v102.631H371.315z"/>
</g>
<g>
	<path style="fill:#3A2C51;" d="M388.613,247.351V119.928c0-4.613-1.73-9.225-5.189-12.685L273.874,4.613
		C270.414,1.73,266.378,0,261.766,0H56.504C40.36,0,27.676,12.685,27.676,28.829v398.414c0,16.144,12.685,28.829,28.829,28.829
		h182.198C264.072,491.243,304.432,512,348.829,512c74.955,0,135.496-60.541,135.496-135.495
		C484.324,316.541,445.117,264.072,388.613,247.351z M279.063,57.081l48.432,45.55h-48.432V57.081z M62.27,34.595h182.198v85.333
		c0,9.802,7.495,17.297,17.297,17.297h92.252v103.784c-1.73,0-3.459,0-5.189,0c-74.955,0-135.495,60.541-135.495,135.496
		c0,15.568,2.306,31.135,7.495,44.973H62.27V34.595z M348.829,477.405c-35.748,0-68.036-18.45-86.486-49.009l0,0
		c-9.225-15.568-14.414-32.865-14.414-51.892c0-55.351,45.55-100.901,100.901-100.901c6.919,0,13.261,0.577,18.45,1.73h0.577
		c47.279,9.225,81.874,50.739,81.874,99.171C449.73,431.856,404.18,477.405,348.829,477.405z"/>
	<path style="fill:#3A2C51;" d="M401.874,359.207h-35.748v-35.171c0-9.802-7.496-17.297-17.297-17.297
		c-9.802,0-17.297,7.495-17.297,17.297v35.171H296.36c-9.802,0-17.297,7.496-17.297,17.297s7.496,17.297,17.297,17.297h35.171
		v35.748c0,9.802,7.495,17.297,17.297,17.297c9.802,0,17.297-7.496,17.297-17.297v-35.748h35.748
		c9.802,0,17.297-7.496,17.297-17.297S411.676,359.207,401.874,359.207z"/>
</g>
<g>
</g>
<g>
</g>
<g>
</g>
<g>
</g>
<g>
</g>
<g>
</g>
<g>
</g>
<g>
</g>
<g>
</g>
<g>
</g>
<g>
</g>
<g>
</g>
<g>
</g>
<g>
</g>
<g>
</g>
</svg>
